<mxfile host="app.diagrams.net" agent="Mozilla/5.0 (X11; Ubuntu; Linux x86_64; rv:141.0) Gecko/20100101 Firefox/141.0" version="28.0.6">
  <diagram name="Page-1" id="IjAZ5eBLrKKukOgJFR3V">
    <mxGraphModel dx="2657" dy="1301" grid="1" gridSize="5" guides="1" tooltips="1" connect="1" arrows="1" fold="1" page="1" pageScale="1" pageWidth="595" pageHeight="842" math="1" shadow="0">
      <root>
        <mxCell id="0" />
        <mxCell id="1" parent="0" />
        <mxCell id="WzazNWXN2MnLIpAUxc-Z-1" value="$$X_L$$" style="strokeWidth=2;html=1;shape=mxgraph.flowchart.database;whiteSpace=wrap;shadow=1;" parent="1" vertex="1">
          <mxGeometry x="-1330" y="-129.5" width="30" height="50" as="geometry" />
        </mxCell>
        <mxCell id="WzazNWXN2MnLIpAUxc-Z-4" value="$$X_L$$" style="strokeWidth=2;html=1;shape=mxgraph.flowchart.database;whiteSpace=wrap;shadow=1;" parent="1" vertex="1">
          <mxGeometry x="-1280" y="-134.5" width="35" height="55" as="geometry" />
        </mxCell>
        <mxCell id="WzazNWXN2MnLIpAUxc-Z-5" value="$$X_L$$" style="strokeWidth=2;html=1;shape=mxgraph.flowchart.database;whiteSpace=wrap;shadow=1;" parent="1" vertex="1">
          <mxGeometry x="-1225" y="-139.5" width="40" height="60" as="geometry" />
        </mxCell>
        <mxCell id="WzazNWXN2MnLIpAUxc-Z-6" value="$$X_L$$" style="strokeWidth=2;html=1;shape=mxgraph.flowchart.database;whiteSpace=wrap;shadow=1;" parent="1" vertex="1">
          <mxGeometry x="-1165" y="-145" width="45" height="65.5" as="geometry" />
        </mxCell>
        <mxCell id="WzazNWXN2MnLIpAUxc-Z-7" value="$$X_L$$" style="strokeWidth=2;html=1;shape=mxgraph.flowchart.database;whiteSpace=wrap;shadow=1;" parent="1" vertex="1">
          <mxGeometry x="-1100" y="-150" width="50" height="70.5" as="geometry" />
        </mxCell>
        <mxCell id="WzazNWXN2MnLIpAUxc-Z-8" value="$$X_L$$" style="strokeWidth=2;html=1;shape=mxgraph.flowchart.database;whiteSpace=wrap;shadow=1;" parent="1" vertex="1">
          <mxGeometry x="-1030" y="-155" width="55" height="75.5" as="geometry" />
        </mxCell>
        <mxCell id="WzazNWXN2MnLIpAUxc-Z-9" value="$$X_L$$" style="strokeWidth=2;html=1;shape=mxgraph.flowchart.database;whiteSpace=wrap;shadow=1;" parent="1" vertex="1">
          <mxGeometry x="-955" y="-160" width="60" height="80.5" as="geometry" />
        </mxCell>
        <mxCell id="WzazNWXN2MnLIpAUxc-Z-10" value="$$X_L$$" style="strokeWidth=2;html=1;shape=mxgraph.flowchart.database;whiteSpace=wrap;shadow=1;" parent="1" vertex="1">
          <mxGeometry x="-875" y="-165" width="65" height="85" as="geometry" />
        </mxCell>
        <mxCell id="WzazNWXN2MnLIpAUxc-Z-11" value="$$X_L$$" style="strokeWidth=2;html=1;shape=mxgraph.flowchart.database;whiteSpace=wrap;shadow=1;" parent="1" vertex="1">
          <mxGeometry x="-790" y="-170.5" width="70" height="90.5" as="geometry" />
        </mxCell>
        <mxCell id="WzazNWXN2MnLIpAUxc-Z-12" value="$$X_L$$" style="strokeWidth=2;html=1;shape=mxgraph.flowchart.database;whiteSpace=wrap;shadow=1;" parent="1" vertex="1">
          <mxGeometry x="-700" y="-175.5" width="75" height="95.5" as="geometry" />
        </mxCell>
        <mxCell id="WzazNWXN2MnLIpAUxc-Z-13" value="$$X_U$$" style="strokeWidth=2;html=1;shape=mxgraph.flowchart.database;whiteSpace=wrap;fillColor=#666666;shadow=1;strokeColor=#006EAF;dashed=1;fontColor=#FFFFFF;" parent="1" vertex="1">
          <mxGeometry x="-1330" y="-70" width="75" height="95.5" as="geometry" />
        </mxCell>
        <mxCell id="WzazNWXN2MnLIpAUxc-Z-14" value="$$X_U$$" style="strokeWidth=2;html=1;shape=mxgraph.flowchart.database;whiteSpace=wrap;fillColor=#666666;shadow=1;fontColor=#FFFFFF;" parent="1" vertex="1">
          <mxGeometry x="-1235" y="-65" width="70" height="90.5" as="geometry" />
        </mxCell>
        <mxCell id="WzazNWXN2MnLIpAUxc-Z-15" value="$$X_U$$" style="strokeWidth=2;html=1;shape=mxgraph.flowchart.database;whiteSpace=wrap;fillColor=#666666;shadow=1;fontColor=#FFFFFF;" parent="1" vertex="1">
          <mxGeometry x="-1145" y="-59.5" width="65" height="85" as="geometry" />
        </mxCell>
        <mxCell id="WzazNWXN2MnLIpAUxc-Z-16" value="$$X_U$$" style="strokeWidth=2;html=1;shape=mxgraph.flowchart.database;whiteSpace=wrap;fillColor=#666666;shadow=1;fontColor=#FFFFFF;" parent="1" vertex="1">
          <mxGeometry x="-1060" y="-55" width="60" height="80.5" as="geometry" />
        </mxCell>
        <mxCell id="WzazNWXN2MnLIpAUxc-Z-17" value="$$X_U$$" style="strokeWidth=2;html=1;shape=mxgraph.flowchart.database;whiteSpace=wrap;fillColor=#666666;shadow=1;fontColor=#FFFFFF;" parent="1" vertex="1">
          <mxGeometry x="-980" y="-50" width="55" height="75.5" as="geometry" />
        </mxCell>
        <mxCell id="WzazNWXN2MnLIpAUxc-Z-18" value="$$X_U$$" style="strokeWidth=2;html=1;shape=mxgraph.flowchart.database;whiteSpace=wrap;fillColor=#666666;shadow=1;fontColor=#FFFFFF;" parent="1" vertex="1">
          <mxGeometry x="-905" y="-45" width="50" height="70.5" as="geometry" />
        </mxCell>
        <mxCell id="WzazNWXN2MnLIpAUxc-Z-19" value="$$X_U$$" style="strokeWidth=2;html=1;shape=mxgraph.flowchart.database;whiteSpace=wrap;fillColor=#666666;shadow=1;fontColor=#FFFFFF;" parent="1" vertex="1">
          <mxGeometry x="-835" y="-40" width="45" height="65.5" as="geometry" />
        </mxCell>
        <mxCell id="WzazNWXN2MnLIpAUxc-Z-20" value="$$X_U$$" style="strokeWidth=2;html=1;shape=mxgraph.flowchart.database;whiteSpace=wrap;fillColor=#666666;shadow=1;fontColor=#FFFFFF;" parent="1" vertex="1">
          <mxGeometry x="-770" y="-34.5" width="40" height="60" as="geometry" />
        </mxCell>
        <mxCell id="WzazNWXN2MnLIpAUxc-Z-21" value="$$X_U$$" style="strokeWidth=2;html=1;shape=mxgraph.flowchart.database;whiteSpace=wrap;fillColor=#666666;shadow=1;fontColor=#FFFFFF;" parent="1" vertex="1">
          <mxGeometry x="-710" y="-29.5" width="35" height="55" as="geometry" />
        </mxCell>
        <mxCell id="WzazNWXN2MnLIpAUxc-Z-23" value="&lt;div style=&quot;line-height: 120%;&quot;&gt;&lt;div style=&quot;line-height: 120%;&quot;&gt;&lt;font style=&quot;line-height: 120%; font-size: 10px; color: rgb(255, 255, 255);&quot;&gt;$$\textbf{Active learning iterations}$$&lt;/font&gt;&lt;/div&gt;&lt;/div&gt;" style="html=1;shadow=0;align=center;verticalAlign=middle;shape=mxgraph.arrows2.arrow;dy=0.6;dx=40;notch=0;fillColor=#006EAF;strokeWidth=2;perimeterSpacing=2;opacity=70;" parent="1" vertex="1">
          <mxGeometry x="-1207.5" y="-305" width="460" height="50" as="geometry" />
        </mxCell>
        <mxCell id="WzazNWXN2MnLIpAUxc-Z-27" value="$$4608$$" style="text;html=1;align=center;verticalAlign=middle;whiteSpace=wrap;rounded=0;" parent="1" vertex="1">
          <mxGeometry x="-1322.5" y="40" width="60" height="30" as="geometry" />
        </mxCell>
        <mxCell id="WzazNWXN2MnLIpAUxc-Z-28" value="$$4096$$" style="text;html=1;align=center;verticalAlign=middle;whiteSpace=wrap;rounded=0;" parent="1" vertex="1">
          <mxGeometry x="-1230" y="40" width="60" height="30" as="geometry" />
        </mxCell>
        <mxCell id="WzazNWXN2MnLIpAUxc-Z-29" value="$$3584$$" style="text;html=1;align=center;verticalAlign=middle;whiteSpace=wrap;rounded=0;" parent="1" vertex="1">
          <mxGeometry x="-1142.5" y="40" width="60" height="30" as="geometry" />
        </mxCell>
        <mxCell id="WzazNWXN2MnLIpAUxc-Z-30" value="$$3072$$" style="text;html=1;align=center;verticalAlign=middle;whiteSpace=wrap;rounded=0;" parent="1" vertex="1">
          <mxGeometry x="-1060" y="40" width="60" height="30" as="geometry" />
        </mxCell>
        <mxCell id="WzazNWXN2MnLIpAUxc-Z-31" value="$$2560$$" style="text;html=1;align=center;verticalAlign=middle;whiteSpace=wrap;rounded=0;" parent="1" vertex="1">
          <mxGeometry x="-982.5" y="40" width="60" height="30" as="geometry" />
        </mxCell>
        <mxCell id="WzazNWXN2MnLIpAUxc-Z-32" value="$$2048$$" style="text;html=1;align=center;verticalAlign=middle;whiteSpace=wrap;rounded=0;" parent="1" vertex="1">
          <mxGeometry x="-910" y="40" width="60" height="30" as="geometry" />
        </mxCell>
        <mxCell id="WzazNWXN2MnLIpAUxc-Z-33" value="$$1536$$" style="text;html=1;align=center;verticalAlign=middle;whiteSpace=wrap;rounded=0;" parent="1" vertex="1">
          <mxGeometry x="-842.5" y="40" width="60" height="30" as="geometry" />
        </mxCell>
        <mxCell id="WzazNWXN2MnLIpAUxc-Z-34" value="$$1024$$" style="text;html=1;align=center;verticalAlign=middle;whiteSpace=wrap;rounded=0;" parent="1" vertex="1">
          <mxGeometry x="-780" y="40" width="60" height="30" as="geometry" />
        </mxCell>
        <mxCell id="WzazNWXN2MnLIpAUxc-Z-35" value="$$512$$" style="text;html=1;align=center;verticalAlign=middle;whiteSpace=wrap;rounded=0;" parent="1" vertex="1">
          <mxGeometry x="-722.5" y="40" width="60" height="30" as="geometry" />
        </mxCell>
        <mxCell id="WzazNWXN2MnLIpAUxc-Z-36" value="$$0$$" style="text;html=1;align=center;verticalAlign=middle;whiteSpace=wrap;rounded=0;" parent="1" vertex="1">
          <mxGeometry x="-670" y="40" width="60" height="30" as="geometry" />
        </mxCell>
        <mxCell id="WzazNWXN2MnLIpAUxc-Z-37" value="$$512$$" style="text;html=1;align=center;verticalAlign=middle;whiteSpace=wrap;rounded=0;" parent="1" vertex="1">
          <mxGeometry x="-1345" y="-212" width="60" height="30" as="geometry" />
        </mxCell>
        <mxCell id="WzazNWXN2MnLIpAUxc-Z-38" value="$$1024$$" style="text;html=1;align=center;verticalAlign=middle;whiteSpace=wrap;rounded=0;" parent="1" vertex="1">
          <mxGeometry x="-1292.5" y="-212" width="60" height="30" as="geometry" />
        </mxCell>
        <mxCell id="WzazNWXN2MnLIpAUxc-Z-39" value="$$1536$$" style="text;html=1;align=center;verticalAlign=middle;whiteSpace=wrap;rounded=0;" parent="1" vertex="1">
          <mxGeometry x="-1235" y="-212" width="60" height="30" as="geometry" />
        </mxCell>
        <mxCell id="WzazNWXN2MnLIpAUxc-Z-40" value="$$2048$$" style="text;html=1;align=center;verticalAlign=middle;whiteSpace=wrap;rounded=0;" parent="1" vertex="1">
          <mxGeometry x="-1172.5" y="-212" width="60" height="30" as="geometry" />
        </mxCell>
        <mxCell id="WzazNWXN2MnLIpAUxc-Z-41" value="$$2560$$" style="text;html=1;align=center;verticalAlign=middle;whiteSpace=wrap;rounded=0;" parent="1" vertex="1">
          <mxGeometry x="-1105" y="-212" width="60" height="30" as="geometry" />
        </mxCell>
        <mxCell id="WzazNWXN2MnLIpAUxc-Z-42" value="$$3072$$" style="text;html=1;align=center;verticalAlign=middle;whiteSpace=wrap;rounded=0;" parent="1" vertex="1">
          <mxGeometry x="-1032.5" y="-212" width="60" height="30" as="geometry" />
        </mxCell>
        <mxCell id="WzazNWXN2MnLIpAUxc-Z-43" value="$$3584$$" style="text;html=1;align=center;verticalAlign=middle;whiteSpace=wrap;rounded=0;" parent="1" vertex="1">
          <mxGeometry x="-955" y="-212" width="60" height="30" as="geometry" />
        </mxCell>
        <mxCell id="WzazNWXN2MnLIpAUxc-Z-44" value="$$4096$$" style="text;html=1;align=center;verticalAlign=middle;whiteSpace=wrap;rounded=0;" parent="1" vertex="1">
          <mxGeometry x="-872.5" y="-212" width="60" height="30" as="geometry" />
        </mxCell>
        <mxCell id="WzazNWXN2MnLIpAUxc-Z-45" value="$$4608$$" style="text;html=1;align=center;verticalAlign=middle;whiteSpace=wrap;rounded=0;" parent="1" vertex="1">
          <mxGeometry x="-785" y="-212" width="60" height="30" as="geometry" />
        </mxCell>
        <mxCell id="WzazNWXN2MnLIpAUxc-Z-46" value="$$5120$$" style="text;html=1;align=center;verticalAlign=middle;whiteSpace=wrap;rounded=0;" parent="1" vertex="1">
          <mxGeometry x="-692.5" y="-212" width="60" height="30" as="geometry" />
        </mxCell>
        <mxCell id="WzazNWXN2MnLIpAUxc-Z-47" value="" style="endArrow=none;html=1;rounded=0;" parent="1" edge="1">
          <mxGeometry width="50" height="50" relative="1" as="geometry">
            <mxPoint x="-1340" y="-220" as="sourcePoint" />
            <mxPoint x="-620" y="-220" as="targetPoint" />
          </mxGeometry>
        </mxCell>
        <mxCell id="WzazNWXN2MnLIpAUxc-Z-48" value="" style="endArrow=none;html=1;rounded=0;" parent="1" edge="1">
          <mxGeometry width="50" height="50" relative="1" as="geometry">
            <mxPoint x="-1315.08" y="-210" as="sourcePoint" />
            <mxPoint x="-1315.08" y="-220" as="targetPoint" />
          </mxGeometry>
        </mxCell>
        <mxCell id="WzazNWXN2MnLIpAUxc-Z-49" value="" style="endArrow=none;html=1;rounded=0;" parent="1" edge="1">
          <mxGeometry width="50" height="50" relative="1" as="geometry">
            <mxPoint x="-1260" y="-210" as="sourcePoint" />
            <mxPoint x="-1260" y="-220" as="targetPoint" />
          </mxGeometry>
        </mxCell>
        <mxCell id="WzazNWXN2MnLIpAUxc-Z-50" value="" style="endArrow=none;html=1;rounded=0;" parent="1" edge="1">
          <mxGeometry width="50" height="50" relative="1" as="geometry">
            <mxPoint x="-1205.08" y="-210" as="sourcePoint" />
            <mxPoint x="-1205.08" y="-220" as="targetPoint" />
          </mxGeometry>
        </mxCell>
        <mxCell id="WzazNWXN2MnLIpAUxc-Z-52" value="" style="endArrow=none;html=1;rounded=0;" parent="1" edge="1">
          <mxGeometry width="50" height="50" relative="1" as="geometry">
            <mxPoint x="-1075.2" y="-210" as="sourcePoint" />
            <mxPoint x="-1075.2" y="-220" as="targetPoint" />
          </mxGeometry>
        </mxCell>
        <mxCell id="WzazNWXN2MnLIpAUxc-Z-53" value="" style="endArrow=none;html=1;rounded=0;" parent="1" edge="1">
          <mxGeometry width="50" height="50" relative="1" as="geometry">
            <mxPoint x="-1000.4000000000001" y="-210" as="sourcePoint" />
            <mxPoint x="-1000.4000000000001" y="-220" as="targetPoint" />
          </mxGeometry>
        </mxCell>
        <mxCell id="WzazNWXN2MnLIpAUxc-Z-54" value="" style="endArrow=none;html=1;rounded=0;" parent="1" edge="1">
          <mxGeometry width="50" height="50" relative="1" as="geometry">
            <mxPoint x="-922.5000000000001" y="-210" as="sourcePoint" />
            <mxPoint x="-922.5000000000001" y="-220" as="targetPoint" />
          </mxGeometry>
        </mxCell>
        <mxCell id="WzazNWXN2MnLIpAUxc-Z-55" value="" style="endArrow=none;html=1;rounded=0;" parent="1" edge="1">
          <mxGeometry width="50" height="50" relative="1" as="geometry">
            <mxPoint x="-842.5000000000001" y="-210" as="sourcePoint" />
            <mxPoint x="-842.5000000000001" y="-220" as="targetPoint" />
          </mxGeometry>
        </mxCell>
        <mxCell id="WzazNWXN2MnLIpAUxc-Z-56" value="" style="endArrow=none;html=1;rounded=0;" parent="1" edge="1">
          <mxGeometry width="50" height="50" relative="1" as="geometry">
            <mxPoint x="-755.1000000000001" y="-210" as="sourcePoint" />
            <mxPoint x="-755.1000000000001" y="-220" as="targetPoint" />
          </mxGeometry>
        </mxCell>
        <mxCell id="WzazNWXN2MnLIpAUxc-Z-57" value="" style="endArrow=none;html=1;rounded=0;" parent="1" edge="1">
          <mxGeometry width="50" height="50" relative="1" as="geometry">
            <mxPoint x="-662.5000000000001" y="-210" as="sourcePoint" />
            <mxPoint x="-662.5000000000001" y="-220" as="targetPoint" />
          </mxGeometry>
        </mxCell>
        <mxCell id="WzazNWXN2MnLIpAUxc-Z-58" value="" style="endArrow=none;html=1;rounded=0;" parent="1" edge="1">
          <mxGeometry width="50" height="50" relative="1" as="geometry">
            <mxPoint x="-1340" y="75" as="sourcePoint" />
            <mxPoint x="-620" y="75" as="targetPoint" />
          </mxGeometry>
        </mxCell>
        <mxCell id="WzazNWXN2MnLIpAUxc-Z-59" value="" style="endArrow=none;html=1;rounded=0;" parent="1" edge="1">
          <mxGeometry width="50" height="50" relative="1" as="geometry">
            <mxPoint x="-1292.73" y="75" as="sourcePoint" />
            <mxPoint x="-1292.73" y="65" as="targetPoint" />
          </mxGeometry>
        </mxCell>
        <mxCell id="WzazNWXN2MnLIpAUxc-Z-60" value="" style="endArrow=none;html=1;rounded=0;" parent="1" edge="1">
          <mxGeometry width="50" height="50" relative="1" as="geometry">
            <mxPoint x="-1200.12" y="75" as="sourcePoint" />
            <mxPoint x="-1200.12" y="65" as="targetPoint" />
          </mxGeometry>
        </mxCell>
        <mxCell id="WzazNWXN2MnLIpAUxc-Z-61" value="" style="endArrow=none;html=1;rounded=0;" parent="1" edge="1">
          <mxGeometry width="50" height="50" relative="1" as="geometry">
            <mxPoint x="-1112.5" y="75" as="sourcePoint" />
            <mxPoint x="-1112.5" y="65" as="targetPoint" />
          </mxGeometry>
        </mxCell>
        <mxCell id="WzazNWXN2MnLIpAUxc-Z-62" value="" style="endArrow=none;html=1;rounded=0;" parent="1" edge="1">
          <mxGeometry width="50" height="50" relative="1" as="geometry">
            <mxPoint x="-1030.12" y="75" as="sourcePoint" />
            <mxPoint x="-1030.12" y="65" as="targetPoint" />
          </mxGeometry>
        </mxCell>
        <mxCell id="WzazNWXN2MnLIpAUxc-Z-63" value="" style="endArrow=none;html=1;rounded=0;" parent="1" edge="1">
          <mxGeometry width="50" height="50" relative="1" as="geometry">
            <mxPoint x="-952.62" y="75" as="sourcePoint" />
            <mxPoint x="-952.62" y="65" as="targetPoint" />
          </mxGeometry>
        </mxCell>
        <mxCell id="WzazNWXN2MnLIpAUxc-Z-64" value="" style="endArrow=none;html=1;rounded=0;" parent="1" edge="1">
          <mxGeometry width="50" height="50" relative="1" as="geometry">
            <mxPoint x="-880.1200000000001" y="75" as="sourcePoint" />
            <mxPoint x="-880.1200000000001" y="65" as="targetPoint" />
          </mxGeometry>
        </mxCell>
        <mxCell id="WzazNWXN2MnLIpAUxc-Z-65" value="" style="endArrow=none;html=1;rounded=0;" parent="1" edge="1">
          <mxGeometry width="50" height="50" relative="1" as="geometry">
            <mxPoint x="-812.5000000000001" y="75" as="sourcePoint" />
            <mxPoint x="-812.5000000000001" y="65" as="targetPoint" />
          </mxGeometry>
        </mxCell>
        <mxCell id="WzazNWXN2MnLIpAUxc-Z-66" value="" style="endArrow=none;html=1;rounded=0;" parent="1" edge="1">
          <mxGeometry width="50" height="50" relative="1" as="geometry">
            <mxPoint x="-750.1200000000001" y="75" as="sourcePoint" />
            <mxPoint x="-750.1200000000001" y="65" as="targetPoint" />
          </mxGeometry>
        </mxCell>
        <mxCell id="WzazNWXN2MnLIpAUxc-Z-67" value="" style="endArrow=none;html=1;rounded=0;" parent="1" edge="1">
          <mxGeometry width="50" height="50" relative="1" as="geometry">
            <mxPoint x="-692.5000000000001" y="75" as="sourcePoint" />
            <mxPoint x="-692.5000000000001" y="65" as="targetPoint" />
          </mxGeometry>
        </mxCell>
        <mxCell id="WzazNWXN2MnLIpAUxc-Z-68" value="" style="endArrow=none;html=1;rounded=0;" parent="1" edge="1">
          <mxGeometry width="50" height="50" relative="1" as="geometry">
            <mxPoint x="-640.1200000000001" y="75" as="sourcePoint" />
            <mxPoint x="-640.1200000000001" y="65" as="targetPoint" />
          </mxGeometry>
        </mxCell>
        <mxCell id="WzazNWXN2MnLIpAUxc-Z-69" value="&lt;font style=&quot;font-size: 14px;&quot;&gt;$$\textbf{Labeled data (training)}$$&lt;/font&gt;" style="text;html=1;align=center;verticalAlign=middle;whiteSpace=wrap;rounded=0;" parent="1" vertex="1">
          <mxGeometry x="-1150" y="-250" width="345" height="30" as="geometry" />
        </mxCell>
        <mxCell id="WzazNWXN2MnLIpAUxc-Z-70" value="&lt;font style=&quot;font-size: 14px;&quot;&gt;$$\textbf{Unlabeled data}$$&lt;/font&gt;" style="text;html=1;align=center;verticalAlign=middle;whiteSpace=wrap;rounded=0;" parent="1" vertex="1">
          <mxGeometry x="-1172.5" y="80" width="345" height="30" as="geometry" />
        </mxCell>
        <mxCell id="NJL1zZ_EO74Tdz4Ou1hY-1" value="" style="endArrow=none;html=1;rounded=0;" parent="1" edge="1">
          <mxGeometry width="50" height="50" relative="1" as="geometry">
            <mxPoint x="-1142.5" y="-210" as="sourcePoint" />
            <mxPoint x="-1142.5" y="-220" as="targetPoint" />
          </mxGeometry>
        </mxCell>
      </root>
    </mxGraphModel>
  </diagram>
</mxfile>
